<?xml version="1.0" encoding="utf-8" ?><svg xmlns="http://www.w3.org/2000/svg" xmlns:xlink="http://www.w3.org/1999/xlink" width="1024" height="1024" viewBox="0 0 1024 1024"><path fill="#F67D23" d="M275.449 237.719C278.587 226.806 286.367 212.166 296.799 207.334C312.244 200.182 320.16 195.466 337.248 197.546C352.32 196.75 354.054 196.961 367.047 203.689C382.942 211.919 389.458 216.061 400.559 230.708C414.691 249.355 423.741 268.795 423.531 292.826C425.946 294.562 426.331 294.492 429.192 293.901C434.495 290.27 448.582 289.798 455.163 290.75C491.519 296.009 502.172 331.557 505.242 362.967C505.861 369.296 502.374 386.595 501.129 393.396C500.727 396.391 500.444 397.559 499.642 400.392C497.764 404.428 495.942 408.491 494.177 412.578C490.589 418.026 487.658 420.147 485.335 423.435L485.168 426.231C485.07 430.663 485.087 435.255 485.746 439.655C489.942 450.286 488.717 458.272 489.102 468.779C488.937 474.292 488.664 479.153 487.735 484.613C487.4 486.413 486.63 490.286 486.621 492.002C486.587 498.882 482.472 505.718 481.19 511.819C478.131 526.372 473.217 536.883 463.625 548.331C460.965 551.506 458.255 554.394 458.164 558.785L456.946 560.405C456.711 562.777 456.421 564.916 456.515 567.303C456.138 569.987 455.793 572.09 455.738 574.818C455.999 576.657 456.237 578.607 456.568 580.424C456.82 584.324 458.135 592.037 458.407 595.998C458.948 603.88 460.126 643.203 462.301 647.865C463.943 670.347 465.104 692.789 466.787 715.255C466.97 717.702 467.352 726.02 467.856 727.901C467.978 736.785 467.867 743.593 467.468 752.466C465.1 777.072 465.712 802.008 461.685 826.628C460.429 834.306 461.201 843.896 460.116 851.749C459.818 860.623 455.861 876.298 455.972 883.46C455.478 886.577 455.487 887.881 455.507 890.95C453.796 903.509 451.735 923.249 448.223 935.014L447.102 940.384L447.017 941.113C443.206 953.817 441.693 969.391 439.48 982.426C438.218 989.859 434.615 998.778 432.416 1006.13C430.774 1011.62 429.367 1018.9 427.365 1024L0 1024L0 1002.99C4.57851 997.555 7.46948 989.743 10.9541 983.307L27.5328 953.342C30.6095 947.665 34.8894 942.477 37.8626 936.74C43.632 925.606 47.9131 914.249 52.2673 902.534C54.457 896.643 59.5128 890.555 62.0727 884.543C64.5752 878.666 66.6318 872.664 68.8226 866.658C75.002 854.399 77.8169 842.998 81.5711 829.98C84.5336 819.707 90.1733 808.839 93.3852 798.559C95.0152 793.342 96.243 788.092 97.4591 782.759C99.8496 773.254 101.775 763.799 105.523 754.69C106.415 752.522 107.13 749.878 107.675 747.58C110.329 726.773 115.173 707.149 121.116 687.084C123.017 680.665 122.386 667.172 124.725 659.855C125.341 657.926 125.691 651.81 126.067 649.346C128.364 635.639 129.615 621.995 130.924 608.188C131.676 600.258 133.566 593.205 134.119 584.951C134.92 579.508 133.588 568.89 133.374 562.723C125.814 554.883 114.418 539.231 109.957 529.139C108.695 526.284 106.328 516.97 105.154 513.363C103.809 509.232 99.8274 500.687 99.1508 497.297C96.6386 484.712 95.4933 468.874 95.283 456.096C95.0606 451.771 93.8096 443.586 93.0923 439.188C79.7189 429.75 74.5808 415.028 70.6902 400.081C70.2434 398.218 70.0236 395.137 69.8187 393.142C69.4117 388.733 67.2248 381.484 66.4156 376.496C63.0368 357.929 68.6936 341.732 79.7644 326.942C90.0469 313.204 105.525 305.771 122.702 308.964C128.486 310.04 135.729 309.616 140.707 313.185C141.937 311.897 141.835 311.839 142.216 310.159C140.196 283.979 139.113 259.652 157.243 238.657C162.634 232.414 170.651 224.723 177.138 219.689C188.094 211.187 203.715 209 217.167 207.944C219.911 207.74 226.785 209.355 229.713 209.747C244.363 211.711 263.948 225.008 272.175 236.808C273.519 237.331 274.012 237.634 275.449 237.719ZM422.196 586.14C424.943 584.421 429.022 582.49 432.153 580.57C443.523 573.596 448.815 565.928 456.784 555.629C458.051 553.667 458.584 553.257 458.446 551.074L457.922 550.352C455.656 551.285 446.561 564.719 442.778 568.29C439.694 571.201 432.762 575.776 431.298 577.364L432.099 578.336L431.545 578.944C430.502 578.932 430.132 578.905 429.101 578.75C418.066 584.149 412.887 587.989 400.521 591.762L400.278 592.615C403.219 597.438 418.104 587.605 422.196 586.14ZM151.336 578.537C156.502 582.388 160.07 584.002 164.732 587.197C168.803 588.95 174.026 590.492 178.253 592.041C180.58 592.893 181.788 592.275 183.936 591.174C181.678 589.839 175.819 588.139 172.966 587.115C164.598 584.11 159.877 581.056 152.704 575.972C147.749 572.511 141.417 563.987 135.944 560.009C132.74 557.68 130.461 552.389 125.927 550.397L125.626 550.94C126.947 555.245 130.985 559.048 134.07 562.492C139.644 567.401 146.076 574.463 151.336 578.537ZM381.118 412.599L381.614 414.113C394.006 435.357 410.461 438.39 433.331 430.497C447.19 425.714 462.753 406.839 466.591 392.929C467.08 390.494 468.753 385.614 469.551 383.187C473.432 371.384 473.69 365.907 470.411 354.225C470.043 344.823 459.891 334.546 452.044 330.224C449.549 328.758 447.648 328.091 444.98 327.06C438.5 324.699 424.679 324.285 419.09 327.356C406.154 334.462 391.097 352.391 385.053 365.429C383.556 368.017 382.581 369.613 381.484 372.44C378.383 382.561 375.644 403.044 381.118 412.599ZM371.495 596.11C375.242 597.545 376.842 597.586 380.833 597.777C385.694 597.899 397.441 597.784 401.159 594.456L400.995 593.774C399.415 592.97 398.882 592.714 396.793 593.173C388.309 594.555 378.603 593.648 371.495 596.11ZM174.965 507.244C175.18 511.548 176.162 515.771 178.126 519.626C180.357 523.676 183.915 527.796 187.418 530.802C188.923 532.64 191.979 534.703 194.043 535.888C201.741 542.239 215.568 545.641 225.246 548.316C231.613 548.297 246.774 547.034 252.11 543.947C268.643 534.381 287.85 526.516 307.253 526.564C314.017 527.211 321.293 528.459 327.732 530.454C337.943 533.618 358.134 544.552 368.592 541.9C386.691 537.312 410.658 527.851 414.884 507.365C415.396 504.884 417.473 501.671 418.147 499.106C419.584 491.316 415.128 473.654 411.252 467.304C405.957 458.628 390.355 449.675 380.745 447.096C368.352 443.77 365.939 439.892 361.065 428.269C357.671 422.499 354.931 412.474 351.429 407.284C339.719 389.982 310.431 369.969 288.795 372.909C273.092 375.044 262.736 378.53 252.181 389.645C245.083 397.12 235.61 400.863 231.632 412.101C230.562 415.124 227.574 418.936 226.879 422.444C223.362 440.823 225.204 442.53 207.91 451.017C201.522 454.152 184.655 469.246 180.565 475.848C178.904 479.115 178.261 481.168 177.105 484.644C174.245 492.104 173.478 499.279 174.965 507.244ZM362.624 350.886C373.51 343.102 385.747 325.475 387.117 312.387C388.99 294.503 384.952 270.06 373.569 255.479C366.978 247.037 354.964 241.182 344.605 238.989C335.317 237.438 316.885 243.697 309.256 249.512C297.246 258.668 296.323 267.689 294.103 281.522C293.308 286.471 291.592 292.196 290.751 297.837C288.08 315.748 293.79 329.601 304.132 344.105C311.221 354.048 323.468 358.153 335.097 360.087C342.782 361.366 348.396 358.721 354.979 355.096C358.313 353.563 359.61 353.009 362.624 350.886ZM349.378 348.793C347.084 349.728 344.996 350.424 342.526 349.96L342.1 349.235C343.754 347.856 345.763 348.431 347.638 347.434C358.406 341.708 361.873 328.932 364.517 317.963C365.559 313.639 365.876 308.802 367.459 304.685L367.801 305.015C368.293 319.583 362.723 339.833 349.962 348.44L349.378 348.793ZM187.697 592.239C188.738 594.443 188.535 594.96 191.035 595.866C195.718 597.563 205.715 598.163 210.542 597.393C210.251 596.168 210.244 594.836 209.188 594.714C202.659 593.963 193.966 593.281 187.697 592.239ZM110.499 403.36C120.253 431.43 155.609 451.282 184.84 441.667C194.42 438.516 202.092 428.503 205.298 419.19C211.089 402.371 201.605 389.64 194.935 375.531C186.656 358.017 175.616 350.397 157.352 344.43C147.241 341.168 138.816 342.498 129.638 347.463C119.535 352.982 114.309 355.049 110.752 366.841C108.063 374.184 108.702 395.506 110.499 403.36ZM191.098 502.114C189.487 494.443 190.653 487.988 194.904 481.316C198.654 475.43 208.204 468.014 214.605 465.723L215.324 465.882C213.637 467.786 209.682 469.681 207.322 471.327C198.778 477.289 192.009 486.057 192.355 496.924C192.587 504.248 195.961 506.583 199.634 512.049C200.084 512.718 199.804 512.807 199.316 513.374C196.611 512.078 193.593 507.017 191.884 504.521C191.778 503.79 191.365 502.841 191.098 502.114ZM239 367.856C257.419 364.939 282.089 342.064 281.899 323.08C281.7 303.249 273.396 272.138 256.484 259.955C250.232 255.366 232.143 245.316 224.61 246.608C207.033 250.694 198.445 255.329 187.307 271.272C179.796 282.024 181.203 304.981 183.323 317.652C184.117 322.393 187.194 328.23 189.095 332.602C193.835 343.503 200.315 353.5 210.684 359.889C217.784 364.265 230.389 368.986 239 367.856Z"/><path fill="#F3F1EC" fill-opacity="0.98039216" d="M422.196 586.14C418.104 587.605 403.219 597.438 400.278 592.615L400.521 591.762C412.887 587.989 418.066 584.149 429.101 578.75C430.132 578.905 430.502 578.932 431.545 578.944L432.099 578.336L431.298 577.364C432.762 575.776 439.694 571.201 442.778 568.29C446.561 564.719 455.656 551.285 457.922 550.352L458.446 551.074C458.584 553.257 458.051 553.667 456.784 555.629C448.815 565.928 443.523 573.596 432.153 580.57C429.022 582.49 424.943 584.421 422.196 586.14Z"/><defs><linearGradient id="gradient_0" gradientUnits="userSpaceOnUse" x1="136.1091" y1="566.02222" x2="141.75694" y2="562.07153"><stop offset="0" stop-color="#FFF5E4" stop-opacity="0"/><stop offset="1" stop-color="#F9EFD7" stop-opacity="0.039215688"/></linearGradient></defs><path fill="url(#gradient_0)" d="M134.07 562.492C130.985 559.048 126.947 555.245 125.626 550.94L125.927 550.397C130.461 552.389 132.74 557.68 135.944 560.009C141.417 563.987 147.749 572.511 152.704 575.972L151.336 578.537C146.076 574.463 139.644 567.401 134.07 562.492Z"/><path fill="#F3F1EC" fill-opacity="0.011764706" d="M152.704 575.972C159.877 581.056 164.598 584.11 172.966 587.115C175.819 588.139 181.678 589.839 183.936 591.174C181.788 592.275 180.58 592.893 178.253 592.041C174.026 590.492 168.803 588.95 164.732 587.197C160.07 584.002 156.502 582.388 151.336 578.537L152.704 575.972Z"/><path fill="#3E221E" d="M133.374 562.723L134.07 562.492C139.644 567.401 146.076 574.463 151.336 578.537C156.502 582.388 160.07 584.002 164.732 587.197C159.12 588.197 141.536 585.499 134.119 584.951C134.92 579.508 133.588 568.89 133.374 562.723Z"/><path fill="#3E221E" d="M456.784 555.629C457.472 557.38 457.153 558.527 456.946 560.405C456.711 562.777 456.421 564.916 456.515 567.303C456.138 569.987 455.793 572.09 455.738 574.818C455.341 576.612 455.61 576.743 453.983 577.975C448.374 582.225 428.529 586.813 422.196 586.14C424.943 584.421 429.022 582.49 432.153 580.57C443.523 573.596 448.815 565.928 456.784 555.629Z"/><path fill="#3E221E" d="M93.0923 439.188C97.1233 442.224 100.989 445.603 104.618 449.119C112.008 456.281 121.215 462.66 129.771 468.369C125.732 467.162 121.132 464.631 117.669 463.753C110.753 461.999 101.862 457.555 95.283 456.096C95.0606 451.771 93.8096 443.586 93.0923 439.188Z"/><path fill="#3E221E" d="M485.335 423.435L485.168 426.231C485.07 430.663 485.087 435.255 485.746 439.655C480.075 441.382 474.546 443.731 468.975 445.433C464.458 446.813 458.301 448.021 453.601 449.044C462.086 444.725 469.732 439.787 476.464 432.974C479.555 429.845 482.016 426.366 485.335 423.435Z"/><path fill="#4A1D16" d="M413.427 308.877C415.813 305.365 421.694 294.642 423.531 292.826C425.946 294.562 426.331 294.492 429.192 293.901C426.545 298.046 417.443 305.393 413.427 308.877Z"/><path fill="#4A1D16" d="M142.216 310.159C142.084 309.918 156.652 323.903 158.045 325.445C154.914 323.474 142.1 315.745 140.317 313.819L140.707 313.185C141.937 311.897 141.835 311.839 142.216 310.159Z"/><path fill="#3E221E" d="M272.175 236.808C273.519 237.331 274.012 237.634 275.449 237.719C276.299 239.744 276.445 242.169 276.589 244.377C276.363 246.145 276.417 247.425 275.594 248.941C274.236 245.705 272.862 240.279 272.175 236.808Z"/><path fill="#4A1D16" d="M276.589 244.377C277.108 248.054 277.431 251.233 277.733 254.939C277.08 253.334 275.805 250.539 275.594 248.941C276.417 247.425 276.363 246.145 276.589 244.377Z"/><path fill="#F3F2EA" fill-opacity="0.94901961" d="M180.565 475.848C184.655 469.246 201.522 454.152 207.91 451.017C225.204 442.53 223.362 440.823 226.879 422.444C227.574 418.936 230.562 415.124 231.632 412.101C235.61 400.863 245.083 397.12 252.181 389.645C262.736 378.53 273.092 375.044 288.795 372.909C310.431 369.969 339.719 389.982 351.429 407.284C354.931 412.474 357.671 422.499 361.065 428.269C365.939 439.892 368.352 443.77 380.745 447.096C390.355 449.675 405.957 458.628 411.252 467.304C415.128 473.654 419.584 491.316 418.147 499.106C417.473 501.671 415.396 504.884 414.884 507.365C410.658 527.851 386.691 537.312 368.592 541.9C358.134 544.552 337.943 533.618 327.732 530.454C321.293 528.459 314.017 527.211 307.253 526.564C287.85 526.516 268.643 534.381 252.11 543.947C246.774 547.034 231.613 548.297 225.246 548.316C215.568 545.641 201.741 542.239 194.043 535.888L193.79 534.024C191.612 532.967 190.196 530.3 190.263 527.914C191.63 528.54 191 528.179 191.997 529.709L192.763 529.742L193.318 528.975C192.141 522.767 196.221 524.078 196.994 516.199C195.184 510.01 191.609 508.864 191.884 504.521C193.593 507.017 196.611 512.078 199.316 513.374C199.804 512.807 200.084 512.718 199.634 512.049C195.961 506.583 192.587 504.248 192.355 496.924C192.009 486.057 198.778 477.289 207.322 471.327C209.682 469.681 213.637 467.786 215.324 465.882L214.605 465.723C208.204 468.014 198.654 475.43 194.904 481.316C190.653 487.988 189.487 494.443 191.098 502.114L189.952 501.908C186.015 498.55 187.409 490.298 188.918 486.017C190.464 481.633 192.51 479.536 195.333 476.069L195.188 475.44L195.168 475.439C188.278 481.414 186.805 486.174 185.383 494.753L184.814 494.758C183.021 493.724 183.655 494.423 182.746 492.678C183.413 486.165 181.819 487.489 179.325 481.67L185 481.901C185.279 478.945 185.638 475.927 185.575 472.964L185.211 473.456C186.556 471.9 187.465 471.069 188.28 469.214C185.07 471.167 184.025 474.303 180.565 475.848Z"/><path fill="#F67D23" d="M376.226 464.002C380.772 463.851 386.545 469.097 389.94 471.817C399.817 479.731 406.975 501.007 397.036 511.338L396.687 511.223C395.636 509.694 397.744 507.99 398.321 506.318C405.12 486.63 390.628 471.823 376.226 464.002Z"/><path fill="#F3F2EA" fill-opacity="0.93725491" d="M224.61 246.608C232.143 245.316 250.232 255.366 256.484 259.955C273.396 272.138 281.7 303.249 281.899 323.08C282.089 342.064 257.419 364.939 239 367.856C230.389 368.986 217.784 364.265 210.684 359.889C200.315 353.5 193.835 343.503 189.095 332.602C187.194 328.23 184.117 322.393 183.323 317.652C181.203 304.981 179.796 282.024 187.307 271.272C198.445 255.329 207.033 250.694 224.61 246.608Z"/><path fill="#F67D23" d="M198.848 308.619C201.189 309.576 200.445 311.63 201.117 313.914C204.827 326.529 211.987 341.066 222.692 349.149C226.696 352.172 230.774 351.769 234.11 353.741L234.404 354.948C226.872 354.5 219.486 350.276 214.782 344.478C207.808 335.881 197.933 320.232 198.848 308.619Z"/><path fill="#F3F2EA" fill-opacity="0.97647059" d="M354.979 355.096C348.396 358.721 342.782 361.366 335.097 360.087C323.468 358.153 311.221 354.048 304.132 344.105C293.79 329.601 288.08 315.748 290.751 297.837C291.592 292.196 293.308 286.471 294.103 281.522C296.323 267.689 297.246 258.668 309.256 249.512C316.885 243.697 335.317 237.438 344.605 238.989C354.964 241.182 366.978 247.037 373.569 255.479C384.952 270.06 388.99 294.503 387.117 312.387C385.747 325.475 373.51 343.102 362.624 350.886C363.704 347.983 366.488 339.894 362.075 338.697C360.442 339.472 359.677 341.003 358.637 342.541C356.199 344.356 355.087 345.92 353.194 348.244L349.962 348.44C362.723 339.833 368.293 319.583 367.801 305.015L367.459 304.685C365.876 308.802 365.559 313.639 364.517 317.963C361.873 328.932 358.406 341.708 347.638 347.434C345.763 348.431 343.754 347.856 342.1 349.235L342.526 349.96C344.996 350.424 347.084 349.728 349.378 348.793C348.973 349.705 348.586 350.625 348.217 351.552C348.634 352.248 348.887 352.976 349.182 353.73C351.386 355.415 351.985 355.051 354.979 355.096Z"/><path fill="#F3F2EA" fill-opacity="0.88627452" d="M110.752 366.841C114.309 355.049 119.535 352.982 129.638 347.463C138.816 342.498 147.241 341.168 157.352 344.43C175.616 350.397 186.656 358.017 194.935 375.531C201.605 389.64 211.089 402.371 205.298 419.19C202.092 428.503 194.42 438.516 184.84 441.667C155.609 451.282 120.253 431.43 110.499 403.36C112.979 400.236 113.951 390.979 112.275 387.206L111.863 390.258C111.262 388.837 112.362 386.611 111.155 385.182C111.008 388.776 111.329 390.739 110.366 394.21C109.615 392.833 110.595 376.104 110.41 373.353C110.272 371.311 111.436 369.346 110.752 366.841Z"/><path fill="#F3F1EC" d="M161.908 369.203C162.909 368.672 163.189 368.173 164.352 368.731C173.303 373.023 181.871 382.716 187.903 390.35C189.065 391.821 186.143 393.341 190.897 396.538L192.569 397.681C192.335 401.489 192.89 411.187 191.415 413.397C190.2 413.986 189.88 414.122 188.422 413.475C187.578 410.748 188.381 404.661 187.259 401.347C181.712 384.957 172.564 376.995 158.723 368.854C160.306 368.537 160.249 368.735 161.908 369.203Z"/><path fill="#F67D23" d="M188.422 413.475C187.578 410.748 188.381 404.661 187.259 401.347C181.712 384.957 172.564 376.995 158.723 368.854C160.306 368.537 160.249 368.735 161.908 369.203C173.669 374.796 193.965 395.984 190.008 411.746C189.847 412.387 188.958 413.075 188.422 413.475Z"/><path fill="#F3F2EA" fill-opacity="0.74901962" d="M385.053 365.429C391.097 352.391 406.154 334.462 419.09 327.356C424.679 324.285 438.5 324.699 444.98 327.06L444.073 327.72C445.103 332.116 448.84 331.337 452.044 330.224C459.891 334.546 470.043 344.823 470.411 354.225C470.346 355.326 470.316 357.748 469.619 358.447L469.467 358.135C467.552 366.118 467.414 367.912 463.929 375.391C465.187 378.491 468.913 382.056 468.459 384.565C466.245 386.157 466.314 384.085 464.318 385.701C463.726 391.188 465.256 389.367 466.591 392.929C462.753 406.839 447.19 425.714 433.331 430.497C410.461 438.39 394.006 435.357 381.614 414.113C383.286 412.109 384.917 408.47 386.991 407.597C389.907 407.767 390.12 408.168 392.071 405.995C392.955 402.352 392.407 386.255 389.47 384.201C387.564 389.256 385.696 390.301 385.679 395.969L385.683 396.546L385.289 396.793C384.42 391.691 386.629 389.286 387.671 384.468C388.138 381.806 386.873 378.134 387.139 375.577C387.466 372.439 390.404 370.319 388.208 366.949C387.231 365.451 386.722 365.763 385.053 365.429Z"/><path fill="#F67D23" d="M417.179 355.299C417.812 355.36 417.428 355.278 418.277 355.727C417.106 356.966 416.102 357.616 414.967 358.712C403.17 370.105 396.661 383.248 395.717 399.379L394.245 398.961C393.242 397.556 393.514 394.629 393.849 393.057C396.845 378.999 405.522 363.683 417.179 355.299Z"/><path fill="#F3F1EC" fill-opacity="0.45490196" d="M385.053 365.429C386.722 365.763 387.231 365.451 388.208 366.949C390.404 370.319 387.466 372.439 387.139 375.577C386.873 378.134 388.138 381.806 387.671 384.468C386.629 389.286 384.42 391.691 385.289 396.793L385.683 396.546L385.679 395.969C385.696 390.301 387.564 389.256 389.47 384.201C392.407 386.255 392.955 402.352 392.071 405.995C390.12 408.168 389.907 407.767 386.991 407.597C384.917 408.47 383.286 412.109 381.614 414.113L381.118 412.599L381.246 409.906C381.451 409.613 381.651 409.317 381.846 409.017C385.268 403.712 384.2 387.185 384.757 380.372C384.92 378.377 381.847 375.03 381.484 372.44C382.581 369.613 383.556 368.017 385.053 365.429Z"/><path fill="#F3F2EA" fill-opacity="0.64313728" d="M180.565 475.848C184.025 474.303 185.07 471.167 188.28 469.214C187.465 471.069 186.556 471.9 185.211 473.456L185.575 472.964C185.638 475.927 185.279 478.945 185 481.901L179.325 481.67C181.819 487.489 183.413 486.165 182.746 492.678C183.655 494.423 183.021 493.724 184.814 494.758L185.383 494.753C186.805 486.174 188.278 481.414 195.168 475.439L195.188 475.44L195.333 476.069C192.51 479.536 190.464 481.633 188.918 486.017C187.409 490.298 186.015 498.55 189.952 501.908L191.098 502.114C191.365 502.841 191.778 503.79 191.884 504.521C191.609 508.864 195.184 510.01 196.994 516.199C196.221 524.078 192.141 522.767 193.318 528.975L192.763 529.742L191.997 529.709C191 528.179 191.63 528.54 190.263 527.914C190.196 530.3 191.612 532.967 193.79 534.024L194.043 535.888C191.979 534.703 188.923 532.64 187.418 530.802L188.04 530.39C187.831 529.895 186.994 527.743 187.232 527.292C191.218 519.76 194.343 512.634 190.239 504.26L188.299 503.798C185.671 501.739 187.681 497.276 182.353 498.795L181.763 498.968C178.733 496.217 181.866 492.77 180.615 489.016C180.435 488.59 180.249 488.167 180.057 487.747C179.295 486.092 178.897 485.313 177.105 484.644C178.261 481.168 178.904 479.115 180.565 475.848Z"/><path fill="#F3F2EA" fill-opacity="0.51764709" d="M188.299 503.798L190.239 504.26C194.343 512.634 191.218 519.76 187.232 527.292C186.994 527.743 187.831 529.895 188.04 530.39L187.418 530.802C183.915 527.796 180.357 523.676 178.126 519.626C182.058 512.877 182.167 512.291 181.66 504.453C183.881 504.557 184.262 504.569 186.431 504.206L188.299 503.798Z"/><path fill="#F3F1EC" fill-opacity="0.39607844" d="M381.484 372.44C381.847 375.03 384.92 378.377 384.757 380.372C384.2 387.185 385.268 403.712 381.846 409.017C381.651 409.317 381.451 409.613 381.246 409.906L381.118 412.599C375.644 403.044 378.383 382.561 381.484 372.44Z"/><path fill="#F3F1EC" fill-opacity="0.65490198" d="M470.411 354.225C473.69 365.907 473.432 371.384 469.551 383.187C468.753 385.614 467.08 390.494 466.591 392.929C465.256 389.367 463.726 391.188 464.318 385.701C466.314 384.085 466.245 386.157 468.459 384.565C468.913 382.056 465.187 378.491 463.929 375.391C467.414 367.912 467.552 366.118 469.467 358.135L469.619 358.447C470.316 357.748 470.346 355.326 470.411 354.225Z"/><path fill="#F67D23" d="M349.378 348.793C347.084 349.728 344.996 350.424 342.526 349.96L342.1 349.235C343.754 347.856 345.763 348.431 347.638 347.434C358.406 341.708 361.873 328.932 364.517 317.963C365.559 313.639 365.876 308.802 367.459 304.685L367.801 305.015C368.293 319.583 362.723 339.833 349.962 348.44L349.378 348.793Z"/><path fill="#F67D23" d="M191.098 502.114C189.487 494.443 190.653 487.988 194.904 481.316C198.654 475.43 208.204 468.014 214.605 465.723L215.324 465.882C213.637 467.786 209.682 469.681 207.322 471.327C198.778 477.289 192.009 486.057 192.355 496.924C192.587 504.248 195.961 506.583 199.634 512.049C200.084 512.718 199.804 512.807 199.316 513.374C196.611 512.078 193.593 507.017 191.884 504.521C191.778 503.79 191.365 502.841 191.098 502.114Z"/><path fill="#F3F1EC" fill-opacity="0.49411765" d="M177.105 484.644C178.897 485.313 179.295 486.092 180.057 487.747C180.249 488.167 180.435 488.59 180.615 489.016C180.01 492.475 177.965 497.243 179.673 500.326C181.343 503.342 184 503.065 186.431 504.206C184.262 504.569 183.881 504.557 181.66 504.453C179.529 503.44 179.156 503.39 176.802 503.094L175.7 503.618L175.531 503.305C174.776 504.518 174.97 505.762 174.965 507.244C173.478 499.279 174.245 492.104 177.105 484.644Z"/><path fill="#F3F2EA" fill-opacity="0.81568629" d="M358.637 342.541C359.677 341.003 360.442 339.472 362.075 338.697C366.488 339.894 363.704 347.983 362.624 350.886C359.61 353.009 358.313 353.563 354.979 355.096C351.985 355.051 351.386 355.415 349.182 353.73C348.887 352.976 348.634 352.248 348.217 351.552C348.586 350.625 348.973 349.705 349.378 348.793L349.962 348.44L353.194 348.244C351.596 349.391 351.367 349.668 351.234 351.509L352.156 352.279C356.368 352.559 363.088 347.786 358.637 342.541Z"/><path fill="#F3F1EC" fill-opacity="0.40392157" d="M174.965 507.244C174.97 505.762 174.776 504.518 175.531 503.305L175.7 503.618L176.802 503.094C179.156 503.39 179.529 503.44 181.66 504.453C182.167 512.291 182.058 512.877 178.126 519.626C176.162 515.771 175.18 511.548 174.965 507.244Z"/><path fill="#F3F1EC" fill-opacity="0.82745099" d="M110.752 366.841C111.436 369.346 110.272 371.311 110.41 373.353C110.595 376.104 109.615 392.833 110.366 394.21C111.329 390.739 111.008 388.776 111.155 385.182C112.362 386.611 111.262 388.837 111.863 390.258L112.275 387.206C113.951 390.979 112.979 400.236 110.499 403.36C108.702 395.506 108.063 374.184 110.752 366.841Z"/><path fill="#F3F2EA" fill-opacity="0.7647059" d="M353.194 348.244C355.087 345.92 356.199 344.356 358.637 342.541C363.088 347.786 356.368 352.559 352.156 352.279L351.234 351.509C351.367 349.668 351.596 349.391 353.194 348.244Z"/><path fill="#F3F2EA" fill-opacity="0.53725493" d="M180.615 489.016C181.866 492.77 178.733 496.217 181.763 498.968L182.353 498.795C187.681 497.276 185.671 501.739 188.299 503.798L186.431 504.206C184 503.065 181.343 503.342 179.673 500.326C177.965 497.243 180.01 492.475 180.615 489.016Z"/><path fill="#F3F1EC" fill-opacity="0.61176473" d="M444.98 327.06C447.648 328.091 449.549 328.758 452.044 330.224C448.84 331.337 445.103 332.116 444.073 327.72L444.98 327.06Z"/><path fill="#F67D23" d="M601.914 293.017C602.008 284.841 603.081 272.565 605.883 265.171C614.406 242.763 628.818 218.635 650.616 207.216C665.155 199.599 670.971 195.708 687.5 197.678C692.619 198.057 700.645 196.249 705.523 197.883C729.159 205.801 741.199 212.638 750.585 236.889L752.144 237.657C754.309 230.873 773.384 217.932 779.628 214.687C796.496 205.92 816.679 206.956 834.279 212.743C852.618 218.772 869.753 238.572 878.088 255.469C884.586 268.64 885.518 297.4 882.932 311.581L883.424 312.692C884.583 312.897 884.333 312.884 885.543 312.864C891.042 309.329 910.723 307.223 917.664 308.834C949.985 316.334 966.291 356.277 956.673 386.422C956.11 388.192 955.669 391.404 955.413 393.262C955.135 395.466 954.895 398.32 954.249 400.385C950.763 418.686 946.018 426.851 932.211 438.868C930.084 449.024 930.483 452.179 929.646 461.547C929.009 478.85 927.452 496.994 920.11 512.553C918.117 516.775 917.491 522.88 915.559 527.251C912.679 533.83 903.358 550.083 897.878 554.511C898.465 552.813 898.922 552.432 898.626 550.925C895.959 550.367 890.247 559.086 888.253 561.382C886.789 562.715 885.206 564.082 883.851 565.508C881.628 567.068 874.858 573.929 874.021 575.98C872.989 578.056 873.754 577.37 871.789 578.261L872.504 578.864C873.111 578.369 873.227 578.209 873.91 577.897C878.919 575.606 880.771 571.651 884.926 567.767L885.408 567.323C887.1 566.353 888.902 564.32 890.185 562.889L891.215 562.384C891.878 565.357 890.476 579.013 890.912 584.464C893.485 610.873 896.829 636.989 900.778 663.23C901.914 670.779 902.438 678.606 903.866 686.075C904.994 691.975 907.048 697.73 908.47 703.566C910.708 712.749 912.52 722.054 914.671 731.264C916.056 737.189 915.659 743.472 917.254 749.267C918.884 755.191 921.91 760.685 923.716 766.562C926.708 776.299 927.726 786.574 930.657 796.292C934.102 807.713 939.31 818.738 943.154 830.061C945.117 835.843 946.019 841.928 947.887 847.727C949.875 853.899 952.968 859.847 955.375 865.875C957.612 871.476 959.342 877.276 961.669 882.842C964.224 888.951 968.449 894.097 971.093 900.087C973.602 905.773 975.564 911.714 977.93 917.461C980.939 924.768 984.569 932.133 988.19 939.157C990.874 944.363 994.73 948.901 997.556 954.025L1015.05 985.682C1017.47 990.124 1021.19 998.398 1024 1002.11L1024 1024L597.62 1024C595.904 1018.48 594.303 1012.62 592.854 1007.02C591.193 1000.59 587.248 991.925 586.335 985.565C583.223 963.863 578.155 943.093 573.49 921.771C570.646 908.772 570.332 893.698 568.819 880.449C566.984 867.364 565.06 855.617 563.887 842.381C564.18 835.929 562.962 823.91 561.815 817.726C561.904 816.53 561.473 813.418 561.156 812.147C561.002 804.688 559.594 794.156 558.899 786.362C559.089 784.146 558.749 780.065 558.759 777.59C558.858 765.566 556.928 753.5 556.963 741.499C556.994 731.17 557.778 720.569 558.531 710.263C558.732 707.523 559.078 705.079 558.913 702.333C559.862 692.138 559.48 680.737 560.7 671.351C561.829 668.348 561.621 651.753 562.703 645.368C563.353 641.911 563.808 638.889 564.267 635.398L564.769 632.345C565.062 631.06 565.593 618.427 565.696 616.565C566.764 611.667 566.434 603.051 566.35 597.838L566.625 594.163L567.047 591.275C567.799 587.548 568.492 583.809 569.126 580.06C569.342 579.566 569.703 577.702 569.843 577.068C569.932 575.481 569.798 573.902 569.717 572.31C569.066 567.986 568.908 562.228 568.111 558.344L568.212 557.288L564.708 552.462C562.95 549.777 561.096 546.707 558.968 544.373C554.391 538.667 552.242 535.215 548.71 528.879C546.534 523.586 545.691 519.552 544.448 514.033L542.132 506.136C539.362 499.207 539.136 495.717 537.958 488.297C537.975 486.903 537.024 481.124 536.775 479.416L536.258 475.316C535.176 469.522 536.097 452.911 537.189 447.068C538.154 444.562 538.036 442.641 539.275 439.719C539.793 435.096 539.861 427.655 540.048 422.845C539.96 422.76 539.872 422.675 539.784 422.59C535.251 420.205 532.315 415.224 529.733 410.827C529.265 409.213 529.01 408.943 528.16 407.519C527.34 405.451 526.489 402.586 525.771 400.418C525.184 398.041 524.623 395.658 524.09 393.268C518.908 368.254 518.167 358.29 525.456 333.499C530.41 316.648 538.727 303.339 554.836 295.254C568.517 288.389 581.647 289.434 595.707 293.562C598.741 294.398 599.201 294.492 601.914 293.017ZM859.986 587.289C862.307 585.665 865.156 584.14 867.64 582.717C866.318 582.086 865.645 581.452 864.075 582.182C860.841 583.684 855.225 585.243 853.206 588.006C854.827 589.565 858.099 588.007 859.986 587.289ZM831.638 483.041L831.957 483.701C835.345 489.483 836.274 496.382 834.538 502.854C834.316 503.66 833.529 504.801 833.091 505.611L832.621 506.469L832.131 507.043C830.196 510.26 829.483 510.873 826.833 513.476C826.079 513.258 826.516 513.447 825.627 512.712C825.972 510.124 833.178 506.228 832.71 495.747C832.165 483.544 826.644 477.466 816.948 470.547C814.412 468.737 811.943 467.934 809.621 465.739L810.418 465.544C817.901 467.525 827.242 476.394 831.638 483.041ZM803.674 443.132C799.698 435.57 800.683 428.692 798.084 421.021C796.023 414.936 791.001 407.698 787.396 402.372C783.479 398.132 778.804 394.406 774.411 390.643C771.864 388.461 767.663 383.243 765.046 381.763C753.937 375.481 737.454 371.489 724.744 373.542C718.862 374.493 712.313 377.078 706.952 379.562C695.07 386.067 680.379 395.716 673.349 407.706C670.605 412.388 667.119 422.297 664.732 427.488C658.584 440.857 657.717 443.125 643.489 447.642C630.995 451.609 614.312 460.984 610.815 474.616C610.203 476.819 609.493 478.807 608.986 481.048C607.443 487.777 605.434 493.731 607.477 500.432C611.898 512.349 612.08 518.511 622.793 526.421C630.746 535.014 637.05 535.726 647.672 538.917C650.846 539.871 657.042 542.509 660.119 542.244C672.682 541.162 686.223 534.81 697.87 530.487C702.289 528.847 715.261 526.532 720.002 526.513C732.902 526.462 749.052 531.909 760.887 537.003C764.41 538.519 769.218 542.197 773.184 543.922C776.984 545.891 781.293 546.102 785.261 547.088C796.417 549.861 804.954 547.962 815.483 543.956C824.959 540.35 836.44 534.665 842.55 526.215C844.553 523.643 847.249 519.932 848.062 516.78C854.763 490.821 848.431 475.633 828.272 459.105L824.622 456.052C822.61 454.289 822.286 453.911 819.947 452.744C814.691 448.7 808.725 446.628 803.674 443.132ZM667.861 353.9C670.884 355.447 674.243 357.35 677.467 358.215C683.068 362.745 695.113 359.27 701.368 357.46C716.308 353.139 722.338 343.717 729.109 330.663C737.71 314.082 735.502 299.777 731.323 282.384C730.174 276.4 729.825 271.099 727.841 265.237C722.179 248.45 703.83 241.314 687.769 238.749C679.925 237.496 673.233 240.927 666.548 244.492C663.845 246.102 658.867 248.052 656.641 250.215C649.425 257.225 642.183 271.134 640.422 280.868C638.102 293.688 635.727 309.926 640.749 322.141C645.728 334.252 655.606 348.347 667.861 353.9ZM795.429 367.397C798.656 366.561 800.37 366.153 803.438 364.834C808.424 363.011 810.733 362.001 815.424 359.46C817.359 358.422 817.448 358.36 819.104 356.919C826.259 351.445 830.255 344.889 834.205 336.996C839.906 325.601 842.332 319.259 842.975 306.44L843.279 303.844C844.405 287.577 844.326 276.862 832.692 263.683C811.494 239.671 786.196 244.284 763.987 264.282C751.367 275.645 744.82 303.936 743.69 320.198C742.75 333.857 751.09 343.741 759.53 353.267C768.253 363.114 782.271 370.006 795.429 367.397ZM575.834 565.383C580.805 572.479 592.874 582.351 601.384 584.616C601.979 584.103 602.573 583.674 603.256 583.288C602.425 582.291 590.678 575.685 587.765 573.315C584.547 570.698 577.242 561.97 574.992 561.221L574.311 561.979C574.894 563.175 575.414 564.117 575.834 565.383ZM615.487 434.24C625.901 433.27 632.415 429.404 639.104 421.413C648.125 410.636 648.516 401.795 647.21 388.236C645.552 371.031 638.595 359.7 627.707 346.831C621.549 339.553 618.946 336.395 611.064 330.044C604.327 324.614 593.383 324.835 584.917 325.549C574.057 329.132 562.892 335.485 557.756 345.847C551.32 359.189 551.659 372.878 556.882 386.563C558.097 389.746 558.961 394.354 560.059 397.706C561.986 404.387 566.633 408.015 571.082 412.894C573.872 415.954 575.904 419.921 579.086 422.804C589.332 432.088 602.459 433.346 615.487 434.24ZM865.696 443.573C870.617 443.075 877.153 440.144 881.906 438.249C885.045 436.539 888.084 434.44 890.981 432.356C895.752 429.389 900.306 425.5 904.441 421.702C907.237 418.249 913.593 407.496 914.336 403.022C916.628 393.325 916.427 379.883 915.492 369.84C915.032 366.712 912.3 360.942 910.49 358.339C907.239 353.769 900.071 350.003 895.094 347.156C878.754 333.466 840.21 352.686 833.205 370.586L832.2 371.992C831.237 374.597 829.9 376.964 828.599 379.413C825.456 385.883 820.623 394.32 818.829 400.82C818.664 402.472 818.451 404.245 818.395 405.89L818.553 408.09C818.635 411.053 818.75 412.74 819.123 415.708C819.964 418.877 820.265 419.904 821.649 422.939L824.656 428.12C829.722 436.018 835.201 440.983 844.716 443.124C848.704 444.022 861.664 444.385 865.696 443.573ZM624.271 502.493C623.951 498.234 623.947 496.092 624.232 491.855C626.838 479.91 632.986 472.813 643.125 466.047C644.649 465.031 646.356 463.847 648.145 463.616L648.614 463.855C634.329 473.206 625.134 482.382 625.667 500.163C625.792 504.326 628.83 507.701 628.879 510.765C626.715 509.791 624.968 504.695 624.271 502.493ZM822.009 597.633C826.028 597.472 834.505 596.792 837.835 594.604L837.809 593.845C836.348 593.117 836.428 593.014 834.843 593.209C831.896 593.527 820.547 594.132 818.702 595.67C819.408 596.862 820.665 597.297 822.009 597.633ZM651.348 597.313L650.967 595.61C649.027 594.451 630.51 593.457 624.967 592.346C625.58 594.105 625.505 595.039 627.292 595.87C632.703 598.386 645.828 598.325 651.348 597.313Z"/><path fill="#F3F2EA" fill-opacity="0.0078431377" d="M574.311 561.979L574.992 561.221C577.242 561.97 584.547 570.698 587.765 573.315C590.678 575.685 602.425 582.291 603.256 583.288C602.573 583.674 601.979 584.103 601.384 584.616C592.874 582.351 580.805 572.479 575.834 565.383C575.414 564.117 574.894 563.175 574.311 561.979Z"/><path fill="#F3F1EC" fill-opacity="0.2" d="M859.986 587.289C858.099 588.007 854.827 589.565 853.206 588.006C855.225 585.243 860.841 583.684 864.075 582.182C865.645 581.452 866.318 582.086 867.64 582.717C865.156 584.14 862.307 585.665 859.986 587.289Z"/><path fill="#3E221E" d="M890.185 562.889L891.215 562.384C891.878 565.357 890.476 579.013 890.912 584.464C883.604 585.043 865.196 589.372 859.986 587.289C862.307 585.665 865.156 584.14 867.64 582.717C869.176 581.991 870.403 581.631 871.368 580.275C871.273 576.911 871.186 577.344 874.021 575.98C872.989 578.056 873.754 577.37 871.789 578.261L872.504 578.864C873.111 578.369 873.227 578.209 873.91 577.897C878.919 575.606 880.771 571.651 884.926 567.767L885.408 567.323C887.1 566.353 888.902 564.32 890.185 562.889Z"/><path fill="#3E221E" d="M568.913 556.466C570.83 559.211 573.446 563.261 575.834 565.383C580.805 572.479 592.874 582.351 601.384 584.616L602.096 585.606C596.205 587.438 575.005 581.255 569.843 577.068C569.932 575.481 569.798 573.902 569.717 572.31C569.066 567.986 568.908 562.228 568.111 558.344L568.212 557.288L568.913 556.466Z"/><path fill="#3E221E" d="M903.38 462.699C907.353 459.446 911.625 456.889 915.796 453.278C920.4 449.291 927.377 442.025 932.211 438.868C930.084 449.024 930.483 452.179 929.646 461.547C929.618 460.186 929.79 457.601 929.208 456.643C922.45 458.958 909.246 462.306 904.067 464.626L903.38 462.699Z"/><path fill="#3E221E" d="M540.048 422.845C551.424 436.355 555.773 440.257 571.288 449.197C566.645 448.167 559.908 446.838 555.5 445.41C549.878 443.588 545.31 441.096 539.275 439.719C539.793 435.096 539.861 427.655 540.048 422.845Z"/><path fill="#4A1D16" d="M601.914 293.017C604.498 296.063 608.66 304.468 611.619 308.774C607.63 305.986 598.142 297.453 595.707 293.562C598.741 294.398 599.201 294.492 601.914 293.017Z"/><path fill="#4A1D16" d="M882.932 311.581L883.424 312.692C884.583 312.897 884.333 312.884 885.543 312.864C883.71 315.575 870.731 323.563 867.265 325.327C870.495 322.044 879.128 312.003 882.932 311.581Z"/><path fill="#F3F1EC" d="M568.913 556.466C567.326 554.216 567.047 553.973 566.252 551.41L566.42 550.639L567.459 550.438C569.892 552.14 572.785 556.64 574 559.51C574.188 559.954 573.739 560.928 573.547 561.526L574.311 561.979C574.894 563.175 575.414 564.117 575.834 565.383C573.446 563.261 570.83 559.211 568.913 556.466Z"/><path fill="#4A1D16" d="M750.585 236.889L752.144 237.657C752.868 240.184 748.844 251.642 747.864 254.73C747.888 250.779 748.668 240.07 750.585 236.889Z"/><path fill="#4A1D16" d="M903.38 462.699L904.067 464.626C900.836 466.26 898.02 467.405 894.66 468.773C897.614 466.817 900.521 464.792 903.38 462.699Z"/><defs><linearGradient id="gradient_1" gradientUnits="userSpaceOnUse" x1="751.7063" y1="567.50586" x2="682.67194" y2="390.19745"><stop offset="0" stop-color="#F2F2E9" stop-opacity="0.73333335"/><stop offset="1" stop-color="#F1F1E8" stop-opacity="0.84705883"/></linearGradient></defs><path fill="url(#gradient_1)" d="M608.986 481.048C609.493 478.807 610.203 476.819 610.815 474.616C614.312 460.984 630.995 451.609 643.489 447.642C657.717 443.125 658.584 440.857 664.732 427.488C667.119 422.297 670.605 412.388 673.349 407.706C680.379 395.716 695.07 386.067 706.952 379.562C712.313 377.078 718.862 374.493 724.744 373.542C737.454 371.489 753.937 375.481 765.046 381.763C767.663 383.243 771.864 388.461 774.411 390.643C778.804 394.406 783.479 398.132 787.396 402.372C791.001 407.698 796.023 414.936 798.084 421.021C800.683 428.692 799.698 435.57 803.674 443.132C808.725 446.628 814.691 448.7 819.947 452.744L819.606 453.449C821.389 454.981 821.944 458.488 822.791 461.189C822.036 464.139 816.161 462.803 814.031 461.956C814.583 463.427 815.302 464.874 815.892 466.424C818.426 467.928 820.519 468.659 822.188 470.828L824.052 471.728C827.417 473.967 831.108 478.972 831.638 483.041C827.242 476.394 817.901 467.525 810.418 465.544L809.621 465.739C811.943 467.934 814.412 468.737 816.948 470.547C826.644 477.466 832.165 483.544 832.71 495.747C833.178 506.228 825.972 510.124 825.627 512.712C826.516 513.447 826.079 513.258 826.833 513.476C826.556 516.336 825.196 517.321 823.393 519.491L823.64 520.057C825.257 520.681 826.267 520.546 827.988 520.544L828.208 520.064L826.275 519.186C828.149 517.277 828.486 516.687 829.523 514.217C832.138 513.315 832.572 515.657 834.861 515.074C836.307 514.705 837.188 514.151 838.522 514.647C838.489 516.013 838.379 516.448 838.113 517.804L838.509 518.991C836.552 520.3 832.916 518.608 830.998 520.291C832.794 521.024 836.932 520.758 839.075 520.743L839.469 520.08C841.506 516.612 841.815 510.927 842.888 509.672C844.252 510.453 844.254 511.093 845.171 512.691L844.915 513.827L842.896 514.022C841.821 515.844 842.329 519.409 842.773 521.455C843.696 522.063 843.177 521.882 844.348 521.949C844.205 523.778 844.569 523.049 843.342 524.266C842.41 523.96 841.523 523.664 840.542 523.584C839.92 524.74 839.723 524.731 839.599 525.908L840.34 526.874C841.73 526.748 841.236 526.837 842.55 526.215C836.44 534.665 824.959 540.35 815.483 543.956C804.954 547.962 796.417 549.861 785.261 547.088C781.293 546.102 776.984 545.891 773.184 543.922C769.218 542.197 764.41 538.519 760.887 537.003C749.052 531.909 732.902 526.462 720.002 526.513C715.261 526.532 702.289 528.847 697.87 530.487C686.223 534.81 672.682 541.162 660.119 542.244C657.042 542.509 650.846 539.871 647.672 538.917C637.05 535.726 630.746 535.014 622.793 526.421L622.5 525.059C621.273 523.877 620.496 523.276 619.788 521.675L619.836 522.055C620.759 519.406 622.454 521.357 622.984 519.109C623.585 516.563 624.23 516.171 626.171 514.263C623.843 509.135 624.107 505.023 623.053 502.785L624.271 502.493C624.968 504.695 626.715 509.791 628.879 510.765C628.83 507.701 625.792 504.326 625.667 500.163C625.134 482.382 634.329 473.206 648.614 463.855L648.145 463.616C646.356 463.847 644.649 465.031 643.125 466.047C632.986 472.813 626.838 479.91 624.232 491.855C623.36 488.509 622.829 485.083 622.645 481.631C624.422 480.618 630.278 474.295 630.949 472.552L630.796 471.737C630.455 471.91 628.213 475.056 627.42 475.39C625.742 476.097 625.315 474.419 624.688 475.83C624.875 477.146 624.882 477.951 623.756 478.903C618.94 482.975 623.326 494.316 621.063 499.106L620.228 496.814L619.494 496.751C620.794 500.624 619.414 499.254 622.536 502.249L621.933 503.098C619.561 503.468 616.017 504.012 613.799 503.039C613.331 498.776 614.086 498.332 609.764 496.993L609.548 496.311C608.73 493.796 609.253 489.998 611.392 488.276C611.88 489.494 611.654 489.198 612.443 490.19L612.801 489.105C612.423 486.554 611 482.775 608.986 481.048Z"/><defs><linearGradient id="gradient_2" gradientUnits="userSpaceOnUse" x1="638.61548" y1="298.77844" x2="733.76849" y2="300.69904"><stop offset="0" stop-color="#F3F2E8" stop-opacity="0.89803922"/><stop offset="1" stop-color="#F2F2E8"/></linearGradient></defs><path fill="url(#gradient_2)" d="M667.861 353.9C655.606 348.347 645.728 334.252 640.749 322.141C635.727 309.926 638.102 293.688 640.422 280.868C642.183 271.134 649.425 257.225 656.641 250.215C658.867 248.052 663.845 246.102 666.548 244.492C673.233 240.927 679.925 237.496 687.769 238.749C703.83 241.314 722.179 248.45 727.841 265.237C729.825 271.099 730.174 276.4 731.323 282.384C735.502 299.777 737.71 314.082 729.109 330.663C722.338 343.717 716.308 353.139 701.368 357.46C695.113 359.27 683.068 362.745 677.467 358.215C679.16 356.946 681.797 357.052 682.706 355.009C679.306 352.387 669.744 343.757 665.763 344.624L665.175 345.639C665.246 349.639 665.998 350.426 667.861 353.9Z"/><path fill="#F67D23" d="M657.431 304.113C657.827 304.331 658.222 304.549 658.617 304.766C659.315 307.742 659.802 312.55 660.479 315.324C662.321 322.869 664.105 331.326 668.383 337.847C671.054 341.919 675.489 347.151 680.389 348.189C681.605 348.447 681.552 348.247 682.664 349.105L682.763 350.397C665.762 349.637 656.077 317.545 657.431 304.113Z"/><defs><linearGradient id="gradient_3" gradientUnits="userSpaceOnUse" x1="837.42676" y1="271.68152" x2="751.12982" y2="341.77252"><stop offset="0" stop-color="#F2F1E7" stop-opacity="0.82352942"/><stop offset="1" stop-color="#F2F1E8" stop-opacity="0.94117647"/></linearGradient></defs><path fill="url(#gradient_3)" d="M795.429 367.397C782.271 370.006 768.253 363.114 759.53 353.267C751.09 343.741 742.75 333.857 743.69 320.198C744.82 303.936 751.367 275.645 763.987 264.282C786.196 244.284 811.494 239.671 832.692 263.683C844.326 276.862 844.405 287.577 843.279 303.844C843.24 301.921 843.426 298.8 842.569 297.25C840.118 295.792 840.929 296.666 839.798 293.308C839.751 297.13 838.68 306.718 840.377 309.201C841.739 309.456 841.252 309.442 842.6 309.219L842.975 306.44C842.332 319.259 839.906 325.601 834.205 336.996C830.255 344.889 826.259 351.445 819.104 356.919C820.153 354.922 820.941 353.944 820.916 351.78C819.71 349.07 816.15 350.869 813.699 351.648C812.964 350.059 812.41 348.832 811.524 347.327C807.291 348.622 799.954 355.603 795.009 358.342L794.906 358.894C797.162 359.769 798.118 363.778 797.762 365.881C796.446 365.801 795.637 365.573 794.492 366.006C794.923 366.895 794.749 366.886 795.429 367.397ZM823.813 316.387L823.18 315.666L822.753 316.768C822.396 315.627 822.599 316.1 822.173 315.306C820.528 316.843 819.24 319.196 818.333 321.247C818.364 321.707 818.985 326.106 819.191 325.775C817.774 328.045 813.876 336.394 812.088 337.755L810.761 335.448L810.124 335.591C810.361 336.65 810.587 337.711 810.803 338.774L808.869 338.238L808.576 339.067C809.78 340.851 809.588 339.917 809.325 341.93C804.179 349.932 792.853 350.486 790.943 352.484L791.343 353.294C795.447 352.496 797.304 351.867 801.056 349.894C811.05 344.64 821.092 326.812 823.813 316.387Z"/><path fill="#F67D23" d="M823.813 316.387C824.382 313.717 824.516 311.022 825.909 308.932L826.376 309.262C827.139 320.761 817.771 335.524 810.766 344.32C807.331 348.634 795.984 357.453 790.762 354.39C791.073 353.424 790.806 353.74 791.343 353.294C795.447 352.496 797.304 351.867 801.056 349.894C811.05 344.64 821.092 326.812 823.813 316.387Z"/><path fill="#F3F2EA" fill-opacity="0.98823529" d="M791.343 353.294L790.943 352.484C792.853 350.486 804.179 349.932 809.325 341.93C809.588 339.917 809.78 340.851 808.576 339.067L808.869 338.238L810.803 338.774C810.587 337.711 810.361 336.65 810.124 335.591L810.761 335.448L812.088 337.755C813.876 336.394 817.774 328.045 819.191 325.775C818.985 326.106 818.364 321.707 818.333 321.247C819.24 319.196 820.528 316.843 822.173 315.306C822.599 316.1 822.396 315.627 822.753 316.768L823.18 315.666L823.813 316.387C821.092 326.812 811.05 344.64 801.056 349.894C797.304 351.867 795.447 352.496 791.343 353.294Z"/><defs><linearGradient id="gradient_4" gradientUnits="userSpaceOnUse" x1="644.83167" y1="375.8746" x2="554.85333" y2="383.31686"><stop offset="0" stop-color="#F3F1E7" stop-opacity="0.86274511"/><stop offset="1" stop-color="#F2F1E8" stop-opacity="0.98039216"/></linearGradient></defs><path fill="url(#gradient_4)" d="M584.917 325.549C593.383 324.835 604.327 324.614 611.064 330.044C618.946 336.395 621.549 339.553 627.707 346.831C638.595 359.7 645.552 371.031 647.21 388.236C648.516 401.795 648.125 410.636 639.104 421.413C632.415 429.404 625.901 433.27 615.487 434.24C602.459 433.346 589.332 432.088 579.086 422.804C575.904 419.921 573.872 415.954 571.082 412.894C566.633 408.015 561.986 404.387 560.059 397.706C558.961 394.354 558.097 389.746 556.882 386.563C551.659 372.878 551.32 359.189 557.756 345.847C562.892 335.485 574.057 329.132 584.917 325.549Z"/><path fill="#F67D23" d="M606.644 355.036C618.737 358.468 632.958 387.045 631.28 399.389C630.322 398.925 630.643 399.119 629.875 398.345C628.473 382.826 623.018 372.343 612.636 360.769C610.825 358.75 607.422 356.815 606.644 355.036Z"/><path fill="#F3F2EA" fill-opacity="0.7019608" d="M833.205 370.586C840.21 352.686 878.754 333.466 895.094 347.156C895.917 351.769 898.114 349.701 899.962 351.749C902.604 354.678 904.054 359.759 908.936 359.762C910.05 359.052 909.714 359.393 910.49 358.339C912.3 360.942 915.032 366.712 915.492 369.84L914.713 369.438C914.148 370.408 914.26 370.082 913.519 370.837C910.215 374.206 912.033 380.714 911.568 384.632C910.753 391.498 913.836 396.926 914.336 403.022C913.593 407.496 907.237 418.249 904.441 421.702C903.103 420.047 903.607 420.195 901.87 419.526C898.812 421.466 902.123 423.59 896.28 424.569L895.556 425.473L895.932 425.793L898.188 425.519L898.414 425.743L891.118 430.96C890.326 430.134 890.647 430.583 890.135 429.628L889.593 430.736C890.232 431.839 889.953 431.497 890.981 432.356C888.084 434.44 885.045 436.539 881.906 438.249C879.576 435.89 879.056 433.697 875.431 432.641C872.463 433.197 872.273 434.644 870.979 437.292C872.343 439.437 872.694 438.716 872.905 440.759C870.774 442.863 864.983 442.057 861.219 443.18C862.955 443.436 863.939 443.505 865.696 443.573C861.664 444.385 848.704 444.022 844.716 443.124C835.201 440.983 829.722 436.018 824.656 428.12L825.697 428.187C826.395 419.989 843.607 422.192 832.481 411.942C832.402 411.364 832.326 410.786 832.253 410.207C831.505 404.265 831.592 403.365 835.213 398.699C835.284 395.185 834.943 393.8 837.694 391.38C839.307 389.96 838.837 386.144 839.258 383.701L839.35 383.187C838.144 384.075 837.361 387.68 836.399 389.371C835.319 391.271 834.224 392.457 832.826 394.092L831.582 393.835L830.93 392.519C831.074 390.612 832.522 389.842 833.628 387.882L834.029 387.158C836.992 377.726 836.908 383.55 840.785 379.885L840.77 378.909C832.34 372.51 842.819 369.817 838.777 364.791C836.639 365.381 836.62 369.092 833.205 370.586ZM843.73 410.291C845.004 407.047 847.215 402.76 846.39 399.474C845.496 398.268 844.364 398.346 842.95 397.728L842.433 397.796L840.565 398.376C839.636 401.722 838.909 408.217 842.28 410.428L843.73 410.291Z"/><path fill="#F67D23" d="M865.091 368.367L866.264 368.564L866.314 369.089C854.742 374.658 842.128 388.327 838.635 400.939C837.544 404.879 837.883 408.548 837.529 412.416L837.433 413.403C836.922 413.115 835.388 412.196 835.34 411.642C833.757 393.41 850.983 375.716 865.091 368.367Z"/><path fill="#F3F2EA" fill-opacity="0.43921569" d="M842.433 397.796L842.95 397.728C844.364 398.346 845.496 398.268 846.39 399.474C847.215 402.76 845.004 407.047 843.73 410.291L842.28 410.428C838.909 408.217 839.636 401.722 840.565 398.376L842.433 397.796Z"/><path fill="#F3F1EC" fill-opacity="0.53333336" d="M828.272 459.105C848.431 475.633 854.763 490.821 848.062 516.78C847.249 519.932 844.553 523.643 842.55 526.215C841.236 526.837 841.73 526.748 840.34 526.874L839.599 525.908C839.723 524.731 839.92 524.74 840.542 523.584C841.523 523.664 842.41 523.96 843.342 524.266C844.569 523.049 844.205 523.778 844.348 521.949C843.177 521.882 843.696 522.063 842.773 521.455C842.329 519.409 841.821 515.844 842.896 514.022L844.915 513.827L845.171 512.691C844.254 511.093 844.252 510.453 842.888 509.672C841.815 510.927 841.506 516.612 839.469 520.08L839.075 520.743C836.932 520.758 832.794 521.024 830.998 520.291C832.916 518.608 836.552 520.3 838.509 518.991L838.113 517.804C838.379 516.448 838.489 516.013 838.522 514.647C837.188 514.151 836.307 514.705 834.861 515.074C832.572 515.657 832.138 513.315 829.523 514.217C828.486 516.687 828.149 517.277 826.275 519.186L828.208 520.064L827.988 520.544C826.267 520.546 825.257 520.681 823.64 520.057L823.393 519.491C825.196 517.321 826.556 516.336 826.833 513.476C829.483 510.873 830.196 510.26 832.131 507.043C832.037 509.664 831.153 513.521 834.968 513.56C838.87 511.459 839.458 509.325 841.676 505.337C841.457 502.731 841.617 499.322 838.823 498.247C834.652 500.579 838.023 504.498 832.621 506.469L833.091 505.611C833.529 504.801 834.316 503.66 834.538 502.854C836.274 496.382 835.345 489.483 831.957 483.701C834.024 482.47 836.949 481.206 836.873 478.148C836.753 473.295 830.325 472.581 827.605 469.868C826.861 469.127 826.964 468.922 825.796 468.801C824.606 470.185 824.366 470.093 824.052 471.728L822.188 470.828C823.182 467.967 824.089 465.127 826.452 463.224C826.995 463.481 827.419 463.575 827.996 463.75C827.764 461.664 827.805 461.158 828.272 459.105Z"/><path fill="#F3F2EA" fill-opacity="0.47843137" d="M831.582 393.835L832.826 394.092C834.224 392.457 835.319 391.271 836.399 389.371C837.361 387.68 838.144 384.075 839.35 383.187L839.258 383.701C838.837 386.144 839.307 389.96 837.694 391.38C834.943 393.8 835.284 395.185 835.213 398.699C831.592 403.365 831.505 404.265 832.253 410.207C832.326 410.786 832.402 411.364 832.481 411.942C843.607 422.192 826.395 419.989 825.697 428.187L824.656 428.12L821.649 422.939C822.529 421.486 823.612 420.138 824.639 418.774C824.648 416.972 824.433 413.583 824.722 411.927C825.588 406.966 826.91 403.072 827.507 397.961C829.26 396.193 829.422 394.632 831.582 393.835Z"/><path fill="#F3F1EC" fill-opacity="0.62352943" d="M609.764 496.993C614.086 498.332 613.331 498.776 613.799 503.039C616.017 504.012 619.561 503.468 621.933 503.098L622.536 502.249L623.053 502.785C624.107 505.023 623.843 509.135 626.171 514.263C624.23 516.171 623.585 516.563 622.984 519.109C622.454 521.357 620.759 519.406 619.836 522.055L619.788 521.675C620.496 523.276 621.273 523.877 622.5 525.059L622.793 526.421C612.08 518.511 611.898 512.349 607.477 500.432C607.733 498.91 608.692 498.168 609.764 496.993Z"/><path fill="#F3F2EA" fill-opacity="0.61960787" d="M795.429 367.397C794.749 366.886 794.923 366.895 794.492 366.006C795.637 365.573 796.446 365.801 797.762 365.881C798.118 363.778 797.162 359.769 794.906 358.894L795.009 358.342C799.954 355.603 807.291 348.622 811.524 347.327C812.41 348.832 812.964 350.059 813.699 351.648C816.15 350.869 819.71 349.07 820.916 351.78C820.941 353.944 820.153 354.922 819.104 356.919C817.448 358.36 817.359 358.422 815.424 359.46C814.83 357.061 815.27 357.145 813.755 355.855C811.434 355.331 810.09 355.772 807.768 355.598C805.601 358.616 801.979 359.925 801.453 362.726C802.227 364.493 801.639 363.769 803.438 364.834C800.37 366.153 798.656 366.561 795.429 367.397Z"/><path fill="#F3F1EC" fill-opacity="0.36078432" d="M832.2 371.992C840.339 373.466 833.558 381.371 834.029 387.158L833.628 387.882C832.522 389.842 831.074 390.612 830.93 392.519L831.582 393.835C829.422 394.632 829.26 396.193 827.507 397.961C824.973 401.216 826.267 403.682 823.575 406.092C821.833 406.412 821.955 406.436 820.252 405.977L819.265 406.738L818.395 405.89C818.451 404.245 818.664 402.472 818.829 400.82C819.065 402.31 819.019 403.055 818.994 404.533C821.056 404.081 824.101 402.613 823.907 400.074C823.433 393.843 833.653 387.314 831.694 380.767C830.363 379.261 831.028 379.707 828.599 379.413C829.9 376.964 831.237 374.597 832.2 371.992Z"/><path fill="#F3F1EC" fill-opacity="0.16470589" d="M667.861 353.9C665.998 350.426 665.246 349.639 665.175 345.639L665.763 344.624C669.744 343.757 679.306 352.387 682.706 355.009C681.797 357.052 679.16 356.946 677.467 358.215C674.243 357.35 670.884 355.447 667.861 353.9Z"/><path fill="#F67D23" d="M826.833 513.476C826.079 513.258 826.516 513.447 825.627 512.712C825.972 510.124 833.178 506.228 832.71 495.747C832.165 483.544 826.644 477.466 816.948 470.547C814.412 468.737 811.943 467.934 809.621 465.739L810.418 465.544C817.901 467.525 827.242 476.394 831.638 483.041L831.957 483.701C835.345 489.483 836.274 496.382 834.538 502.854C834.316 503.66 833.529 504.801 833.091 505.611L832.621 506.469L832.131 507.043C830.196 510.26 829.483 510.873 826.833 513.476Z"/><path fill="#F3F2EA" fill-opacity="0.18431373" d="M828.599 379.413C831.028 379.707 830.363 379.261 831.694 380.767C833.653 387.314 823.433 393.843 823.907 400.074C824.101 402.613 821.056 404.081 818.994 404.533C819.019 403.055 819.065 402.31 818.829 400.82C820.623 394.32 825.456 385.883 828.599 379.413Z"/><path fill="#F3F1EC" fill-opacity="0.47058824" d="M914.336 403.022C913.836 396.926 910.753 391.498 911.568 384.632C912.033 380.714 910.215 374.206 913.519 370.837C914.26 370.082 914.148 370.408 914.713 369.438L915.492 369.84C916.427 379.883 916.628 393.325 914.336 403.022Z"/><path fill="#F67D23" d="M624.232 491.855C626.838 479.91 632.986 472.813 643.125 466.047C644.649 465.031 646.356 463.847 648.145 463.616L648.614 463.855C634.329 473.206 625.134 482.382 625.667 500.163C625.792 504.326 628.83 507.701 628.879 510.765C626.715 509.791 624.968 504.695 624.271 502.493C623.951 498.234 623.947 496.092 624.232 491.855Z"/><path fill="#F3F1EC" fill-opacity="0.3137255" d="M832.621 506.469C838.023 504.498 834.652 500.579 838.823 498.247C841.617 499.322 841.457 502.731 841.676 505.337C839.458 509.325 838.87 511.459 834.968 513.56C831.153 513.521 832.037 509.664 832.131 507.043L832.621 506.469ZM838.653 504.965C839.391 504.643 839.775 503.824 839.551 503.05C839.327 502.277 838.565 501.79 837.769 501.911C837.153 502.005 836.647 502.447 836.472 503.045C836.296 503.643 836.483 504.288 836.951 504.7C837.419 505.112 838.082 505.215 838.653 504.965Z"/><path fill="#F3F2EA" fill-opacity="0.29411766" d="M837.769 501.911C838.565 501.79 839.327 502.277 839.551 503.05C839.775 503.824 839.391 504.643 838.653 504.965C838.082 505.215 837.419 505.112 836.951 504.7C836.483 504.288 836.296 503.643 836.472 503.045C836.647 502.447 837.153 502.005 837.769 501.911Z"/><path fill="#F3F1EC" fill-opacity="0.43921569" d="M824.052 471.728C824.366 470.093 824.606 470.185 825.796 468.801C826.964 468.922 826.861 469.127 827.605 469.868C830.325 472.581 836.753 473.295 836.873 478.148C836.949 481.206 834.024 482.47 831.957 483.701L831.638 483.041C831.108 478.972 827.417 473.967 824.052 471.728Z"/><path fill="#F3F2EA" fill-opacity="0.63529414" d="M819.947 452.744C822.286 453.911 822.61 454.289 824.622 456.052C822.945 459.978 825.849 458.88 826.452 463.224C824.089 465.127 823.182 467.967 822.188 470.828C820.519 468.659 818.426 467.928 815.892 466.424C815.302 464.874 814.583 463.427 814.031 461.956C816.161 462.803 822.036 464.139 822.791 461.189C821.944 458.488 821.389 454.981 819.606 453.449L819.947 452.744Z"/><path fill="#F3F1EC" fill-opacity="0.32549021" d="M807.768 355.598C810.09 355.772 811.434 355.331 813.755 355.855C815.27 357.145 814.83 357.061 815.424 359.46C810.733 362.001 808.424 363.011 803.438 364.834C801.639 363.769 802.227 364.493 801.453 362.726C801.979 359.925 805.601 358.616 807.768 355.598Z"/><path fill="#F3F1EC" fill-opacity="0.41568628" d="M827.507 397.961C826.91 403.072 825.588 406.966 824.722 411.927C824.433 413.583 824.648 416.972 824.639 418.774C823.612 420.138 822.529 421.486 821.649 422.939C820.265 419.904 819.964 418.877 819.123 415.708C820.696 414.565 822.139 412.412 821.987 410.424C821.256 409.059 821.323 409.137 820.125 408.157L819.308 408.467L818.553 408.09L818.395 405.89L819.265 406.738L820.252 405.977C821.955 406.436 821.833 406.412 823.575 406.092C826.267 403.682 824.973 401.216 827.507 397.961Z"/><path fill="#F3F2EA" fill-opacity="0.57647061" d="M865.696 443.573C863.939 443.505 862.955 443.436 861.219 443.18C864.983 442.057 870.774 442.863 872.905 440.759C872.694 438.716 872.343 439.437 870.979 437.292C872.273 434.644 872.463 433.197 875.431 432.641C879.056 433.697 879.576 435.89 881.906 438.249C877.153 440.144 870.617 443.075 865.696 443.573Z"/><path fill="#F3F1EC" fill-opacity="0.75686276" d="M622.536 502.249C619.414 499.254 620.794 500.624 619.494 496.751L620.228 496.814L621.063 499.106C623.326 494.316 618.94 482.975 623.756 478.903C624.882 477.951 624.875 477.146 624.688 475.83C625.315 474.419 625.742 476.097 627.42 475.39C628.213 475.056 630.455 471.91 630.796 471.737L630.949 472.552C630.278 474.295 624.422 480.618 622.645 481.631C622.829 485.083 623.36 488.509 624.232 491.855C623.947 496.092 623.951 498.234 624.271 502.493L623.053 502.785L622.536 502.249Z"/><path fill="#F3F1EC" fill-opacity="0.627451" d="M833.205 370.586C836.62 369.092 836.639 365.381 838.777 364.791C842.819 369.817 832.34 372.51 840.77 378.909L840.785 379.885C836.908 383.55 836.992 377.726 834.029 387.158C833.558 381.371 840.339 373.466 832.2 371.992L833.205 370.586Z"/><path fill="#F3F1EC" fill-opacity="0.74509805" d="M608.986 481.048C611 482.775 612.423 486.554 612.801 489.105L612.443 490.19C611.654 489.198 611.88 489.494 611.392 488.276C609.253 489.998 608.73 493.796 609.548 496.311L609.764 496.993C608.692 498.168 607.733 498.91 607.477 500.432C605.434 493.731 607.443 487.777 608.986 481.048Z"/><path fill="#F3F1EC" fill-opacity="0.47843137" d="M895.094 347.156C900.071 350.003 907.239 353.769 910.49 358.339C909.714 359.393 910.05 359.052 908.936 359.762C904.054 359.759 902.604 354.678 899.962 351.749C898.114 349.701 895.917 351.769 895.094 347.156Z"/><path fill="#F3F1EC" fill-opacity="0.63529414" d="M842.975 306.44L842.6 309.219C841.252 309.442 841.739 309.456 840.377 309.201C838.68 306.718 839.751 297.13 839.798 293.308C840.929 296.666 840.118 295.792 842.569 297.25C843.426 298.8 843.24 301.921 843.279 303.844L842.975 306.44Z"/><path fill="#F3F1EC" fill-opacity="0.59215689" d="M890.981 432.356C889.953 431.497 890.232 431.839 889.593 430.736L890.135 429.628C890.647 430.583 890.326 430.134 891.118 430.96L898.414 425.743L898.188 425.519L895.932 425.793L895.556 425.473L896.28 424.569C902.123 423.59 898.812 421.466 901.87 419.526C903.607 420.195 903.103 420.047 904.441 421.702C900.306 425.5 895.752 429.389 890.981 432.356Z"/><path fill="#F3F1EC" fill-opacity="0.47843137" d="M818.553 408.09L819.308 408.467L820.125 408.157C821.323 409.137 821.256 409.059 821.987 410.424C822.139 412.412 820.696 414.565 819.123 415.708C818.75 412.74 818.635 411.053 818.553 408.09Z"/><path fill="#F3F1EC" fill-opacity="0.59607846" d="M824.622 456.052L828.272 459.105C827.805 461.158 827.764 461.664 827.996 463.75C827.419 463.575 826.995 463.481 826.452 463.224C825.849 458.88 822.945 459.978 824.622 456.052Z"/><defs><linearGradient id="gradient_5" gradientUnits="userSpaceOnUse" x1="426.8588" y1="675.1239" x2="609.27905" y2="597.76721"><stop offset="0" stop-color="#F4F2E9" stop-opacity="0.074509807"/><stop offset="1" stop-color="#F1F1E8" stop-opacity="0.74901962"/></linearGradient></defs><path fill="url(#gradient_5)" d="M497.586 417.135C500.308 415.864 507.909 412.635 508.972 410.375C508.299 408.215 507.612 408.364 505.879 406.347L506.274 405.626C509.365 404.859 512.882 408.02 514.618 407.734C517.606 407.241 518.801 404.632 523.009 405.575C524.411 406.746 523.89 406.008 524.337 408.043L525.297 408.516C526.474 408.215 527.027 407.978 528.16 407.519C529.01 408.943 529.265 409.213 529.733 410.827C529.765 412.158 529.817 413.404 529.734 414.736C528.548 415.075 528.492 414.856 527.105 414.539C527.122 416.054 529.048 417.353 530.208 418.33C530.085 421.153 526.81 422.604 529.12 425.34C530.818 427.353 535.223 428.155 537.688 428.829C537.843 428.872 537.847 430.533 537.854 430.434C537.538 435.173 533.813 441.564 535.289 445.956C535.296 446.05 535.302 446.144 535.308 446.238C529.565 450.047 531.436 457.615 531.126 463.802C530.918 467.951 531.064 477.616 534.932 479.937C536.377 478.396 536.309 477.653 536.258 475.316L536.775 479.416C537.107 485.448 531.756 484.498 536.135 491.493L536.831 491.429C537.467 490.072 537.558 489.752 537.958 488.297C539.136 495.717 539.362 499.207 542.132 506.136L538.226 510.514C538.5 512.257 538.71 513.76 539.148 515.468C540.23 516.229 540.191 516.131 541.538 516.119L541.798 516.925L542.361 517.153L542.11 517.069C542.945 516.095 543.672 515.052 544.448 514.033C545.691 519.552 546.534 523.586 548.71 528.879L548.521 531.031C546.275 532.645 546.263 534.566 548.048 536.732C549.506 537.327 550.155 537.166 551.713 537.082L552.269 537.508C551.789 538.238 551.359 538.96 550.992 539.753C552.645 543.142 554.606 544.061 557.738 546.072L558.461 545.805L558.968 544.373C561.096 546.707 562.95 549.777 564.708 552.462C563.078 553.904 562.717 554.034 562.06 556.006C562.644 558.791 565.221 558.603 567.899 559.095L568.111 558.344C568.908 562.228 569.066 567.986 569.717 572.31C565.483 568.225 568.608 562.95 565.375 560.721C560.108 565.121 564.15 571.944 564.131 577.359C564.114 582.136 561.806 587.565 563.626 592.285C564.896 593.657 565.449 593.05 566.625 594.163L566.35 597.838L565.718 600.221L565.477 596.758C564.457 595.996 565.032 596.279 563.578 596.236C561.789 599.57 565.794 609.142 561.171 616.175L560.799 614.572C558.802 617.633 560.574 623.279 560.685 627.042C560.751 629.279 561.956 630.126 563.421 631.426L563.844 631.864L564.456 631.753L564.769 632.345L564.267 635.398L563.767 634.374C562.704 635.855 557.45 639.034 561.038 644.079C561.41 644.603 562.193 644.827 562.703 645.368C561.621 651.753 561.829 668.348 560.7 671.351C560.507 670.929 560.375 670.573 560.123 670.191L559.493 670.502C557.777 670.302 558.536 670.106 557.135 671.084C554.332 676.041 554.922 687.511 555.675 693.28C555.877 694.827 558.91 699.045 558.635 701.438C558.728 701.736 558.821 702.034 558.913 702.333C559.078 705.079 558.732 707.523 558.531 710.263C557.778 720.569 556.994 731.17 556.963 741.499C556.928 753.5 558.858 765.566 558.759 777.59C558.749 780.065 559.089 784.146 558.899 786.362C556.95 793.126 553.17 802.436 556.147 809.63C557.081 811.887 559.574 810.424 560.798 813.196L561.156 812.147C561.473 813.418 561.904 816.53 561.815 817.726C559.73 824.481 560.181 847.486 556.696 854.639C556.161 855.126 555.518 855.691 554.777 855.594C549.056 854.847 546.009 846.052 543.525 841.996C540.687 837.362 536.953 833.717 534.659 829.073C530.769 821.2 528.219 813.063 525.375 804.818C523.099 798.254 520.256 794.411 519.888 787.28C512.262 780.361 505.783 776.884 504.757 765.637L504.32 775.971C503.975 775.08 503.844 770.012 503.779 768.709C487.414 744.583 491.023 764.889 482.947 766.766C476.888 764.051 478.715 767.91 476.032 771.83C474 774.798 472.041 772.531 469.263 775.089C469.282 771.976 469.025 768.943 468.807 765.84C471.951 761.928 471.311 754.902 468.549 751.164L467.468 752.466C467.867 743.593 467.978 736.785 467.856 727.901L468.685 729.854C469.304 729.318 469.38 726.191 469.493 725.066C472.135 725.03 473.581 723.941 476.187 723.287C479.116 725.337 479.437 732.028 481.507 735.81L482.11 735.299C483.495 730.979 480.173 709.234 478.812 704.248C472.99 710.212 474.528 705.541 468.269 708.029C468.317 707.285 468.408 707.329 468.259 706.427C467.22 700.148 464.933 679.555 466.864 674.474L467.918 674.5L468.44 674.961L469.183 674.75C469.572 673.489 470.093 672.099 470.778 670.928C474.137 665.183 472.321 656.907 469.286 651.381C468.539 650.021 466.522 649.766 465.09 649.541C464.112 649.182 463.491 648.086 462.904 647.281L462.301 647.865C460.126 643.203 458.948 603.88 458.407 595.998C458.135 592.037 456.82 584.324 456.568 580.424L456.993 580.326C461.076 577.081 458.178 571.032 456.515 567.303C456.421 564.916 456.711 562.777 456.946 560.405L458.164 558.785C458.255 554.394 460.965 551.506 463.625 548.331C473.217 536.883 478.131 526.372 481.19 511.819C482.472 505.718 486.587 498.882 486.621 492.002C486.63 490.286 487.4 486.413 487.735 484.613C488.024 485.624 487.731 485.264 488.508 485.771L488.766 483.869L489.224 483.879L490.25 485.108C492.515 482.125 488.143 472.642 490.099 467.483C490.591 466.188 490.222 455.198 490.009 453.822L489.593 453.752C489.726 457.954 489.928 464.751 489.102 468.779C488.717 458.272 489.942 450.286 485.746 439.655C485.087 435.255 485.07 430.663 485.168 426.231C485.409 427.708 485.699 428.745 485.835 430.269C485.835 427.602 485.846 427.233 486.805 424.757L487.746 425.271C487.06 426.627 487.062 426.522 487.018 428.032L487.778 428.037C491.498 425.953 495.68 421.008 497.586 417.135Z"/><defs><linearGradient id="gradient_6" gradientUnits="userSpaceOnUse" x1="504.68112" y1="1018.7007" x2="487.40799" y2="750.7489"><stop offset="0" stop-color="#F5F4F1" stop-opacity="0"/><stop offset="1" stop-color="#F6F6EC" stop-opacity="0.035294119"/></linearGradient></defs><path fill="url(#gradient_6)" d="M467.468 752.466L468.549 751.164C468.74 753.306 469.061 756.414 468.943 758.504C468.663 763.439 466.519 773.102 468.932 777.568C469.093 776.603 469.202 776.065 469.263 775.089C472.041 772.531 474 774.798 476.032 771.83C478.715 767.91 476.888 764.051 482.947 766.766C491.023 764.889 487.414 744.583 503.779 768.709C503.844 770.012 503.975 775.08 504.32 775.971L504.757 765.637C505.783 776.884 512.262 780.361 519.888 787.28C520.256 794.411 523.099 798.254 525.375 804.818C528.219 813.063 530.769 821.2 534.659 829.073C536.953 833.717 540.687 837.362 543.525 841.996C546.009 846.052 549.056 854.847 554.777 855.594C555.518 855.691 556.161 855.126 556.696 854.639C560.181 847.486 559.73 824.481 561.815 817.726C562.962 823.91 564.18 835.929 563.887 842.381C562.733 847.961 565.356 864.3 566.435 870.507C568.717 883.642 569.058 896.641 570.873 909.818C570.957 910.409 569.476 910.809 569.078 910.965C567.463 913.97 566.014 931.396 568.854 933.719L570.412 933.521C572.377 937.86 570.339 943.388 571.967 947.748C572.111 948.133 574.321 949.341 574.868 949.643C577.706 953.83 573.664 962.472 574.744 967.692C575.574 971.7 577.32 969.763 577.894 971.451C575.274 971.861 572.282 970.139 572.146 967.503C571.91 962.936 570.479 962.419 566.527 960.709C561.427 953.09 566.64 947.243 565.19 941.242C564.761 939.469 561.207 940.227 559.791 933.332C558.163 931.565 555.236 932.408 554.795 931.881C552.462 929.092 553.433 925.489 549.521 923.956C545.751 924.864 544.98 930.676 544.596 934.178C543.195 946.937 533.571 949.244 524.914 956C493.457 956.633 496.536 944.208 480.609 976.777C478.599 980.887 467.129 985.55 464.128 989.044C457.719 996.392 452.19 1003.17 445.597 1010.57C442.683 1009.65 445.081 1008.9 442.293 1008.93C441.08 1010.25 441.1 1010.12 440.888 1011.88C442.722 1017.52 453.605 1018.81 453.812 1022.06C451.909 1022.93 432.548 1022.52 428.907 1022.5L429.878 1019.57C433.926 1019.77 433.425 1019.9 436.452 1016.86C436.432 1013.92 436.083 1007.5 437.07 1005.02C444.316 998.514 437.977 996.311 441.606 992.613C447.715 986.389 443.946 984.131 441.233 977.474C440.706 974.291 443.397 964.086 443.855 959.676L444.287 959.124C444.364 961.526 444.296 965.605 445.161 967.68L445.746 967.752C452.213 958.965 442.947 956.974 446.178 948.442C446.929 946.459 447.355 943.221 447.017 941.113L447.102 940.384C448.995 942.66 447.337 945.267 448.857 947.287L449.845 947.371C453.579 945.213 452.014 940.108 450.431 937.015C449.261 936.367 449.032 936.083 448.223 935.014C451.735 923.249 453.796 903.509 455.507 890.95C458.471 894.435 454.397 901.007 457.406 903.75L458.284 903.371C460.215 899.79 460.454 890.659 456.676 888.061C456.57 885.902 456.529 885.552 455.972 883.46C455.861 876.298 459.818 860.623 460.116 851.749C461.201 843.896 460.429 834.306 461.685 826.628C465.712 802.008 465.1 777.072 467.468 752.466Z"/><path fill="#3E221E" d="M1024 393.167L1024 400.271C1015.44 399.837 1007.05 400.189 998.5 400.215L954.249 400.385C954.895 398.32 955.135 395.466 955.413 393.262C962.439 393.907 978.196 393.507 985.521 393.378C998.243 393.155 1011.4 393.448 1024 393.167Z"/><path fill="#3E221E" d="M69.8187 393.142C70.0236 395.137 70.2434 398.218 70.6902 400.081C61.6366 399.724 51.8165 400.211 42.6783 400.13C28.4146 400.004 14.2689 399.824 0 400.169L0 394.205C5.76414 393.146 14.1625 393.464 20.2253 393.468C31.5216 393.514 42.8181 393.495 54.1141 393.413C58.9393 393.37 65.1659 393.557 69.8187 393.142Z"/><path fill="#F3F1EC" fill-opacity="0.18431373" d="M506.403 400.419C512.231 400.388 520.11 400.12 525.771 400.418C526.489 402.586 527.34 405.451 528.16 407.519C527.027 407.978 526.474 408.215 525.297 408.516L524.337 408.043C523.89 406.008 524.411 406.746 523.009 405.575C518.801 404.632 517.606 407.241 514.618 407.734C512.882 408.02 509.365 404.859 506.274 405.626L505.879 406.347C507.612 408.364 508.299 408.215 508.972 410.375C507.909 412.635 500.308 415.864 497.586 417.135C495.68 421.008 491.498 425.953 487.778 428.037L487.018 428.032C487.062 426.522 487.06 426.627 487.746 425.271L486.805 424.757C485.846 427.233 485.835 427.602 485.835 430.269C485.699 428.745 485.409 427.708 485.168 426.231L485.335 423.435C487.658 420.147 490.589 418.026 494.177 412.578L494.943 412.924C503.205 411.342 503.512 403.288 506.403 400.419Z"/><defs><linearGradient id="gradient_7" gradientUnits="userSpaceOnUse" x1="469.66797" y1="721.29425" x2="481.0459" y2="720.11578"><stop offset="0" stop-color="#F6F4EE" stop-opacity="0.06666667"/><stop offset="1" stop-color="#F4F3E8" stop-opacity="0.10980392"/></linearGradient></defs><path fill="url(#gradient_7)" d="M468.269 708.029C474.528 705.541 472.99 710.212 478.812 704.248C480.173 709.234 483.495 730.979 482.11 735.299L481.507 735.81C479.437 732.028 479.116 725.337 476.187 723.287C473.581 723.941 472.135 725.03 469.493 725.066C469.557 721.021 471.477 715.27 469.217 711.316C468.415 709.913 468.384 709.592 468.269 708.029Z"/><defs><linearGradient id="gradient_8" gradientUnits="userSpaceOnUse" x1="470.56955" y1="689.32672" x2="464.57224" y2="689.91437"><stop offset="0" stop-color="#F7F5ED" stop-opacity="0"/><stop offset="1" stop-color="#F4F2F0" stop-opacity="0.06666667"/></linearGradient></defs><path fill="url(#gradient_8)" d="M462.301 647.865L462.904 647.281C463.491 648.086 464.112 649.182 465.09 649.541C465.429 654.245 468.625 656.062 468.808 660.935C469.016 666.464 467.345 668.728 467.918 674.5L466.864 674.474C464.933 679.555 467.22 700.148 468.259 706.427C468.408 707.329 468.317 707.285 468.269 708.029C468.384 709.592 468.415 709.913 469.217 711.316C471.477 715.27 469.557 721.021 469.493 725.066C469.38 726.191 469.304 729.318 468.685 729.854L467.856 727.901C467.352 726.02 466.97 717.702 466.787 715.255C465.104 692.789 463.943 670.347 462.301 647.865Z"/><path fill="#3E221E" d="M524.09 393.268C524.623 395.658 525.184 398.041 525.771 400.418C520.11 400.12 512.231 400.388 506.403 400.419L499.642 400.392C500.444 397.559 500.727 396.391 501.129 393.396C508.026 393.57 517.335 393.788 524.09 393.268Z"/><path fill="#F3F2EA" fill-opacity="0.71764708" d="M535.308 446.238C535.302 446.144 535.296 446.05 535.289 445.956C533.813 441.564 537.538 435.173 537.854 430.434C537.847 430.533 537.843 428.872 537.688 428.829C535.223 428.155 530.818 427.353 529.12 425.34C526.81 422.604 530.085 421.153 530.208 418.33C529.048 417.353 527.122 416.054 527.105 414.539C528.492 414.856 528.548 415.075 529.734 414.736C529.817 413.404 529.765 412.158 529.733 410.827C532.315 415.224 535.251 420.205 539.784 422.59C539.872 422.675 539.96 422.76 540.048 422.845C539.861 427.655 539.793 435.096 539.275 439.719C538.036 442.641 538.154 444.562 537.189 447.068L535.308 446.238Z"/><path fill="#F3F2EA" fill-opacity="0.43529412" d="M566.625 594.163C565.449 593.05 564.896 593.657 563.626 592.285C561.806 587.565 564.114 582.136 564.131 577.359C564.15 571.944 560.108 565.121 565.375 560.721C568.608 562.95 565.483 568.225 569.717 572.31C569.798 573.902 569.932 575.481 569.843 577.068C569.703 577.702 569.342 579.566 569.126 580.06C568.073 579.98 567.379 580.652 566.609 581.417C562.796 585.203 564.527 588.256 567.047 591.275L566.625 594.163Z"/><path fill="#F3F1EC" fill-opacity="0.06666667" d="M558.913 702.333C558.821 702.034 558.728 701.736 558.635 701.438C558.91 699.045 555.877 694.827 555.675 693.28C554.922 687.511 554.332 676.041 557.135 671.084C558.536 670.106 557.777 670.302 559.493 670.502L560.123 670.191C560.375 670.573 560.507 670.929 560.7 671.351C559.48 680.737 559.862 692.138 558.913 702.333Z"/><defs><linearGradient id="gradient_9" gradientUnits="userSpaceOnUse" x1="562.35565" y1="607.60443" x2="565.86646" y2="608.17578"><stop offset="0" stop-color="#F1F1EB" stop-opacity="0.69411767"/><stop offset="1" stop-color="#F0EEEF" stop-opacity="0.75294119"/></linearGradient></defs><path fill="url(#gradient_9)" d="M563.421 631.426C561.956 630.126 560.751 629.279 560.685 627.042C560.574 623.279 558.802 617.633 560.799 614.572L561.171 616.175C565.794 609.142 561.789 599.57 563.578 596.236C565.032 596.279 564.457 595.996 565.477 596.758L565.718 600.221L566.35 597.838C566.434 603.051 566.764 611.667 565.696 616.565L564.268 616.097C562.37 621.783 564.445 626.321 563.421 631.426Z"/><path fill="#F3F1EC" fill-opacity="0.011764706" d="M558.899 786.362C559.594 794.156 561.002 804.688 561.156 812.147L560.798 813.196C559.574 810.424 557.081 811.887 556.147 809.63C553.17 802.436 556.95 793.126 558.899 786.362Z"/><defs><linearGradient id="gradient_10" gradientUnits="userSpaceOnUse" x1="469.7323" y1="664.4306" x2="472.66315" y2="664.69556"><stop offset="0" stop-color="#F5F4EB" stop-opacity="0.078431375"/><stop offset="1" stop-color="#F5F4E9" stop-opacity="0.10980392"/></linearGradient></defs><path fill="url(#gradient_10)" d="M465.09 649.541C466.522 649.766 468.539 650.021 469.286 651.381C472.321 656.907 474.137 665.183 470.778 670.928C470.093 672.099 469.572 673.489 469.183 674.75L468.44 674.961L467.918 674.5C467.345 668.728 469.016 666.464 468.808 660.935C468.625 656.062 465.429 654.245 465.09 649.541Z"/><path fill="#F3F2EA" fill-opacity="0.60784316" d="M558.968 544.373L558.461 545.805L557.738 546.072C554.606 544.061 552.645 543.142 550.992 539.753C551.359 538.96 551.789 538.238 552.269 537.508L551.713 537.082C550.155 537.166 549.506 537.327 548.048 536.732C546.263 534.566 546.275 532.645 548.521 531.031L548.71 528.879C552.242 535.215 554.391 538.667 558.968 544.373Z"/><path fill="#F3F2EA" fill-opacity="0.031372551" d="M883.851 565.508L885.408 567.323L884.926 567.767C880.771 571.651 878.919 575.606 873.91 577.897C873.227 578.209 873.111 578.369 872.504 578.864L871.789 578.261C873.754 577.37 872.989 578.056 874.021 575.98C874.858 573.929 881.628 567.068 883.851 565.508Z"/><path fill="#F3F1EC" fill-opacity="0.4627451" d="M542.132 506.136L544.448 514.033C543.672 515.052 542.945 516.095 542.11 517.069L542.361 517.153L541.798 516.925L541.538 516.119C540.191 516.131 540.23 516.229 539.148 515.468C538.71 513.76 538.5 512.257 538.226 510.514L542.132 506.136Z"/><path fill="#F3F1EC" fill-opacity="0.38039216" d="M489.102 468.779C489.928 464.751 489.726 457.954 489.593 453.752L490.009 453.822C490.222 455.198 490.591 466.188 490.099 467.483C488.143 472.642 492.515 482.125 490.25 485.108L489.224 483.879L488.766 483.869L488.508 485.771C487.731 485.264 488.024 485.624 487.735 484.613C488.664 479.153 488.937 474.292 489.102 468.779Z"/><path fill="#F3F1EC" fill-opacity="0.10196079" d="M468.549 751.164C471.311 754.902 471.951 761.928 468.807 765.84C469.025 768.943 469.282 771.976 469.263 775.089C469.202 776.065 469.093 776.603 468.932 777.568C466.519 773.102 468.663 763.439 468.943 758.504C469.061 756.414 468.74 753.306 468.549 751.164Z"/><path fill="#F3F1EC" fill-opacity="0.054901961" d="M567.047 591.275C564.527 588.256 562.796 585.203 566.609 581.417C567.379 580.652 568.073 579.98 569.126 580.06C568.492 583.809 567.799 587.548 567.047 591.275Z"/><path fill="#F3F1EC" fill-opacity="0.47058824" d="M562.703 645.368C562.193 644.827 561.41 644.603 561.038 644.079C557.45 639.034 562.704 635.855 563.767 634.374L564.267 635.398C563.808 638.889 563.353 641.911 562.703 645.368Z"/><path fill="#F3F1EC" fill-opacity="0.14901961" d="M456.515 567.303C458.178 571.032 461.076 577.081 456.993 580.326L456.568 580.424C456.237 578.607 455.999 576.657 455.738 574.818C455.793 572.09 456.138 569.987 456.515 567.303Z"/><path fill="#F3F1EC" fill-opacity="0.78039217" d="M563.421 631.426C564.445 626.321 562.37 621.783 564.268 616.097L565.696 616.565C565.593 618.427 565.062 631.06 564.769 632.345L564.456 631.753L563.844 631.864L563.421 631.426Z"/><path fill="#F3F2EA" fill-opacity="0.72156864" d="M564.708 552.462L568.212 557.288L568.111 558.344L567.899 559.095C565.221 558.603 562.644 558.791 562.06 556.006C562.717 554.034 563.078 553.904 564.708 552.462Z"/><path fill="#F3F1EC" fill-opacity="0.71764708" d="M536.775 479.416C537.024 481.124 537.975 486.903 537.958 488.297C537.558 489.752 537.467 490.072 536.831 491.429L536.135 491.493C531.756 484.498 537.107 485.448 536.775 479.416Z"/><path fill="#F3F2EA" fill-opacity="0.28235295" d="M883.851 565.508C885.206 564.082 886.789 562.715 888.253 561.382L890.185 562.889C888.902 564.32 887.1 566.353 885.408 567.323L883.851 565.508Z"/></svg>